# xmcd
#
# Track frame offsets:
#	150
#	15032
#	26620
#	41505
#	58611
#	78104
#	94027
#	107882
#	124992
#	136546
#	156530
#	169347
#	189983
#
# Disc length: 2743 seconds
# Revision: 1
# Processed by: cddbd v1.5.2PL0 Copyright (c) Steve Scherf et al.
# Submitted via: dBpowerAMP V12.0
#
DISCID=9a0ab50d
DTITLE=John Reischman and the Jaybirds - On That Other Green Shore
DYEAR=2017
DGENRE=Country: Bluegrass
TTITLE0=Wellesley Station
TTITLE1=Don't You Hear the Lambs a-Crying
TTITLE2=Home Is Where I Long to Be
TTITLE3=Red Diamond
TTITLE4=I Don't Want to Say Goodbye
TTITLE5=Two of Us
TTITLE6=Daylighting the Creek
TTITLE7=Today Has Been a Lonesome Day
TTITLE8=You've Got to Righten That Wrong
TTITLE9=Thistletown
TTITLE10=Gonna Walk
TTITLE11=Green Pastures
TTITLE12=Katie Bar the Door
EXTD=
EXTT0=
EXTT1=
EXTT2=
EXTT3=
EXTT4=
EXTT5=
EXTT6=
EXTT7=
EXTT8=
EXTT9=
EXTT10=
EXTT11=
EXTT12=
PLAYORDER=
